<svg width="13" height="13" viewBox="0 0 13 13" fill="none" xmlns="http://www.w3.org/2000/svg">
<path fill-rule="evenodd" clip-rule="evenodd" d="M0.642824 0.851556L0.5 1.20311V6.5V11.7969L0.642824 12.1484L0.785647 12.5H5.67647H10.5673L10.7101 12.1484L10.8529 11.7969V11.0373V10.2778H10.2647H9.67647V10.8333V11.3889H5.67647H1.67647V6.5V1.61111H5.67647H9.67647V2.16667V2.72222H10.2647H10.8529V1.96267V1.20311L10.7101 0.851556L10.5673 0.5H5.67647H0.785647L0.642824 0.851556ZM9.67647 5.152V6.05556H7.44118H5.20588V6.5V6.94444H7.44118H9.67647V7.848V8.75178L11.0882 7.70422L12.5 6.65667V6.5V6.34333L11.0882 5.29578L9.67647 4.24822V5.152Z" fill="white"/>
</svg>
